<?xml version="1.0" standalone="no"?>
<!DOCTYPE svg PUBLIC "-//W3C//DTD SVG 20010904//EN"
 "http://www.w3.org/TR/2001/REC-SVG-20010904/DTD/svg10.dtd">
<svg version="1.0" xmlns="http://www.w3.org/2000/svg"
 width="512.000000pt" height="512.000000pt" viewBox="0 0 512.000000 512.000000"
 preserveAspectRatio="xMidYMid meet">

<g transform="translate(0.000000,512.000000) scale(0.100000,-0.100000)"
fill="#000000" stroke="none">
<path d="M3473 4724 c-21 -21 -24 -32 -20 -61 5 -27 250 -467 334 -599 13 -20
-8 -34 -615 -388 -346 -201 -633 -366 -638 -366 -5 0 -70 104 -143 230 -74
127 -136 230 -139 230 -3 0 -443 -255 -978 -567 l-974 -568 0 -307 c0 -170 2
-308 5 -308 6 0 260 147 1120 649 341 199 624 363 629 364 6 2 126 -195 275
-452 6 -10 152 70 622 345 1056 616 1104 644 1114 644 6 0 84 -126 174 -280
160 -274 208 -340 250 -340 30 0 68 37 85 83 9 23 79 283 157 577 158 596 162
617 116 706 -38 76 -96 120 -192 149 -200 59 -1084 285 -1118 285 -27 0 -45
-7 -64 -26z"/>
<path d="M3903 3300 l-103 -60 0 -1343 0 -1342 24 -50 c34 -73 69 -110 138
-144 l61 -31 272 0 272 0 61 31 c69 34 104 71 138 144 l24 50 -1 1330 0 1330
-35 -125 c-19 -68 -46 -143 -59 -166 -89 -152 -260 -172 -383 -45 -20 21 -95
138 -166 260 -70 121 -131 221 -135 221 -3 0 -52 -27 -108 -60z"/>
<path d="M3133 2852 l-492 -287 -1 -1005 0 -1005 24 -50 c34 -73 69 -110 138
-144 l61 -31 277 0 277 0 61 31 c69 34 104 71 138 144 l24 50 0 1293 c0 710
-3 1292 -7 1292 -5 -1 -230 -130 -500 -288z"/>
<path d="M1742 2673 l-252 -147 0 -986 0 -985 24 -50 c34 -73 69 -110 138
-144 l61 -31 272 0 272 0 61 31 c69 34 105 71 139 145 l23 51 -2 955 -3 956
-90 -54 c-49 -29 -94 -53 -100 -53 -5 0 -70 103 -143 229 -74 127 -137 230
-140 230 -4 0 -121 -66 -260 -147z"/>
<path d="M833 2142 l-493 -287 0 -651 0 -651 31 -61 c32 -66 79 -109 150 -142
40 -18 67 -20 315 -20 l271 0 61 31 c69 34 105 71 139 145 l23 51 -2 936 -3
936 -492 -287z"/>
</g>
</svg>
